<mxfile host="app.diagrams.net" modified="2021-04-02T18:33:39.927Z" agent="5.0 (Windows NT 10.0; Win64; x64) AppleWebKit/537.36 (KHTML, like Gecko) Chrome/89.0.4389.90 Safari/537.36 Edg/89.0.774.63" etag="gNN9vjgnFXiJILd41eCT" version="14.5.6" type="github">
  <diagram id="C5RBs43oDa-KdzZeNtuy" name="Page-1">
    <mxGraphModel dx="1422" dy="762" grid="1" gridSize="10" guides="1" tooltips="1" connect="1" arrows="1" fold="1" page="1" pageScale="1" pageWidth="827" pageHeight="1169" math="0" shadow="0">
      <root>
        <mxCell id="WIyWlLk6GJQsqaUBKTNV-0" />
        <mxCell id="WIyWlLk6GJQsqaUBKTNV-1" parent="WIyWlLk6GJQsqaUBKTNV-0" />
        <mxCell id="FY832Te5Y5AnzOvyW6PR-1" value="Class&lt;br&gt;Object&lt;br&gt;Attribute&lt;br&gt;Method&lt;br&gt;Inheritance&lt;br&gt;Association&lt;br&gt;Encapsulation&lt;br&gt;Abstraction&lt;br&gt;Polymorphism&lt;br&gt;Interface&lt;br&gt;Packages&lt;br&gt;" style="text;html=1;align=center;verticalAlign=middle;resizable=0;points=[];autosize=1;" parent="WIyWlLk6GJQsqaUBKTNV-1" vertex="1">
          <mxGeometry x="680" y="395" width="90" height="160" as="geometry" />
        </mxCell>
        <mxCell id="FY832Te5Y5AnzOvyW6PR-34" value="&amp;gt;&amp;gt;Interface&amp;lt;&amp;lt;&lt;br&gt;AdvancedOperations&lt;br&gt;" style="html=1;" parent="WIyWlLk6GJQsqaUBKTNV-1" vertex="1">
          <mxGeometry x="260" y="810" width="150" height="65" as="geometry" />
        </mxCell>
        <mxCell id="FY832Te5Y5AnzOvyW6PR-35" value="&amp;gt;&amp;gt;Interface&amp;lt;&amp;lt;&lt;br&gt;BasicOperations&lt;br&gt;" style="html=1;noLabel=0;comic=0;backgroundOutline=0;container=0;" parent="WIyWlLk6GJQsqaUBKTNV-1" vertex="1">
          <mxGeometry x="440" y="810" width="150" height="65" as="geometry" />
        </mxCell>
        <mxCell id="FY832Te5Y5AnzOvyW6PR-38" value="BasicCalculator&#xa;" style="swimlane;fontStyle=1;align=center;verticalAlign=top;childLayout=stackLayout;horizontal=1;startSize=26;horizontalStack=0;resizeParent=1;resizeParentMax=0;resizeLast=0;collapsible=1;marginBottom=0;comic=0;" parent="WIyWlLk6GJQsqaUBKTNV-1" vertex="1">
          <mxGeometry x="250" y="30" width="300" height="144" as="geometry" />
        </mxCell>
        <mxCell id="FY832Te5Y5AnzOvyW6PR-40" value="" style="line;strokeWidth=1;fillColor=none;align=left;verticalAlign=middle;spacingTop=-1;spacingLeft=3;spacingRight=3;rotatable=0;labelPosition=right;points=[];portConstraint=eastwest;" parent="FY832Te5Y5AnzOvyW6PR-38" vertex="1">
          <mxGeometry y="26" width="300" height="8" as="geometry" />
        </mxCell>
        <mxCell id="FY832Te5Y5AnzOvyW6PR-41" value="+addition (double, double):double &#xa;+subtraction  (double, double):double&#xa;+multiplication  (double, double):double&#xa;+division  (double, double):double" style="text;strokeColor=none;fillColor=none;align=left;verticalAlign=top;spacingLeft=4;spacingRight=4;overflow=hidden;rotatable=0;points=[[0,0.5],[1,0.5]];portConstraint=eastwest;" parent="FY832Te5Y5AnzOvyW6PR-38" vertex="1">
          <mxGeometry y="34" width="300" height="110" as="geometry" />
        </mxCell>
        <mxCell id="UgGnOIbF7wilouZ1nSR6-17" style="edgeStyle=orthogonalEdgeStyle;rounded=0;orthogonalLoop=1;jettySize=auto;html=1;entryX=0.587;entryY=1.009;entryDx=0;entryDy=0;entryPerimeter=0;" edge="1" parent="WIyWlLk6GJQsqaUBKTNV-1" source="FY832Te5Y5AnzOvyW6PR-46" target="FY832Te5Y5AnzOvyW6PR-41">
          <mxGeometry relative="1" as="geometry">
            <Array as="points">
              <mxPoint x="426" y="390" />
            </Array>
          </mxGeometry>
        </mxCell>
        <mxCell id="FY832Te5Y5AnzOvyW6PR-46" value="AdvancedCalculator&#xa;" style="swimlane;fontStyle=1;align=center;verticalAlign=top;childLayout=stackLayout;horizontal=1;startSize=26;horizontalStack=0;resizeParent=1;resizeParentMax=0;resizeLast=0;collapsible=1;marginBottom=0;comic=0;" parent="WIyWlLk6GJQsqaUBKTNV-1" vertex="1">
          <mxGeometry x="21" y="290" width="270" height="218" as="geometry" />
        </mxCell>
        <mxCell id="FY832Te5Y5AnzOvyW6PR-47" value="+ field: type" style="text;strokeColor=none;fillColor=none;align=left;verticalAlign=top;spacingLeft=4;spacingRight=4;overflow=hidden;rotatable=0;points=[[0,0.5],[1,0.5]];portConstraint=eastwest;" parent="FY832Te5Y5AnzOvyW6PR-46" vertex="1">
          <mxGeometry y="26" width="270" height="4" as="geometry" />
        </mxCell>
        <mxCell id="FY832Te5Y5AnzOvyW6PR-48" value="" style="line;strokeWidth=1;fillColor=none;align=left;verticalAlign=middle;spacingTop=-1;spacingLeft=3;spacingRight=3;rotatable=0;labelPosition=right;points=[];portConstraint=eastwest;" parent="FY832Te5Y5AnzOvyW6PR-46" vertex="1">
          <mxGeometry y="30" width="270" height="8" as="geometry" />
        </mxCell>
        <mxCell id="FY832Te5Y5AnzOvyW6PR-49" value="+square (double): double&#xa;+cube (double): double&#xa;+squareroot (double): double&#xa;+log (double): double&#xa;+ln (double): double&#xa;" style="text;strokeColor=none;fillColor=none;align=left;verticalAlign=top;spacingLeft=4;spacingRight=4;overflow=hidden;rotatable=0;points=[[0,0.5],[1,0.5]];portConstraint=eastwest;" parent="FY832Te5Y5AnzOvyW6PR-46" vertex="1">
          <mxGeometry y="38" width="270" height="180" as="geometry" />
        </mxCell>
        <mxCell id="UgGnOIbF7wilouZ1nSR6-0" value="Classname" style="swimlane;fontStyle=1;align=center;verticalAlign=top;childLayout=stackLayout;horizontal=1;startSize=26;horizontalStack=0;resizeParent=1;resizeParentMax=0;resizeLast=0;collapsible=1;marginBottom=0;" vertex="1" parent="WIyWlLk6GJQsqaUBKTNV-1">
          <mxGeometry x="60" y="820" width="160" height="86" as="geometry" />
        </mxCell>
        <mxCell id="UgGnOIbF7wilouZ1nSR6-1" value="+ field: type" style="text;strokeColor=none;fillColor=none;align=left;verticalAlign=top;spacingLeft=4;spacingRight=4;overflow=hidden;rotatable=0;points=[[0,0.5],[1,0.5]];portConstraint=eastwest;" vertex="1" parent="UgGnOIbF7wilouZ1nSR6-0">
          <mxGeometry y="26" width="160" height="26" as="geometry" />
        </mxCell>
        <mxCell id="UgGnOIbF7wilouZ1nSR6-2" value="" style="line;strokeWidth=1;fillColor=none;align=left;verticalAlign=middle;spacingTop=-1;spacingLeft=3;spacingRight=3;rotatable=0;labelPosition=right;points=[];portConstraint=eastwest;" vertex="1" parent="UgGnOIbF7wilouZ1nSR6-0">
          <mxGeometry y="52" width="160" height="8" as="geometry" />
        </mxCell>
        <mxCell id="UgGnOIbF7wilouZ1nSR6-3" value="+ method(type): type" style="text;strokeColor=none;fillColor=none;align=left;verticalAlign=top;spacingLeft=4;spacingRight=4;overflow=hidden;rotatable=0;points=[[0,0.5],[1,0.5]];portConstraint=eastwest;" vertex="1" parent="UgGnOIbF7wilouZ1nSR6-0">
          <mxGeometry y="60" width="160" height="26" as="geometry" />
        </mxCell>
        <mxCell id="UgGnOIbF7wilouZ1nSR6-8" value="Main&#xa;" style="swimlane;fontStyle=1;align=center;verticalAlign=top;childLayout=stackLayout;horizontal=1;startSize=26;horizontalStack=0;resizeParent=1;resizeParentMax=0;resizeLast=0;collapsible=1;marginBottom=0;" vertex="1" parent="WIyWlLk6GJQsqaUBKTNV-1">
          <mxGeometry x="600" y="40" width="220" height="64" as="geometry" />
        </mxCell>
        <mxCell id="UgGnOIbF7wilouZ1nSR6-9" value="+ field: type" style="text;strokeColor=none;fillColor=none;align=left;verticalAlign=top;spacingLeft=4;spacingRight=4;overflow=hidden;rotatable=0;points=[[0,0.5],[1,0.5]];portConstraint=eastwest;" vertex="1" parent="UgGnOIbF7wilouZ1nSR6-8">
          <mxGeometry y="26" width="220" height="4" as="geometry" />
        </mxCell>
        <mxCell id="UgGnOIbF7wilouZ1nSR6-10" value="" style="line;strokeWidth=1;fillColor=none;align=left;verticalAlign=middle;spacingTop=-1;spacingLeft=3;spacingRight=3;rotatable=0;labelPosition=right;points=[];portConstraint=eastwest;" vertex="1" parent="UgGnOIbF7wilouZ1nSR6-8">
          <mxGeometry y="30" width="220" height="8" as="geometry" />
        </mxCell>
        <mxCell id="UgGnOIbF7wilouZ1nSR6-11" value="+public static void main(String[] args)" style="text;strokeColor=none;fillColor=none;align=left;verticalAlign=top;spacingLeft=4;spacingRight=4;overflow=hidden;rotatable=0;points=[[0,0.5],[1,0.5]];portConstraint=eastwest;" vertex="1" parent="UgGnOIbF7wilouZ1nSR6-8">
          <mxGeometry y="38" width="220" height="26" as="geometry" />
        </mxCell>
      </root>
    </mxGraphModel>
  </diagram>
</mxfile>
